<mxfile host="app.diagrams.net" modified="2024-05-04T11:44:29.281Z" agent="Mozilla/5.0 (X11; Linux x86_64) AppleWebKit/537.36 (KHTML, like Gecko) Chrome/124.0.0.0 Safari/537.36" etag="COhsA5rnucjZXhG6taZA" version="24.2.5" type="device">
  <diagram name="Page-1" id="qxd6wfcR5kea-7s_KWJL">
    <mxGraphModel dx="1434" dy="940" grid="1" gridSize="10" guides="1" tooltips="1" connect="1" arrows="1" fold="1" page="1" pageScale="1" pageWidth="850" pageHeight="1100" math="0" shadow="0">
      <root>
        <mxCell id="0" />
        <mxCell id="1" parent="0" />
        <mxCell id="rjZ7sQsrVze4uHoTfamT-1" value="French" style="rounded=0;whiteSpace=wrap;html=1;fontStyle=2" vertex="1" parent="1">
          <mxGeometry x="640" y="440" width="80" height="40" as="geometry" />
        </mxCell>
        <mxCell id="rjZ7sQsrVze4uHoTfamT-2" value="&lt;div&gt;&lt;span style=&quot;background-color: initial;&quot;&gt;OÃ¯l&lt;/span&gt;&lt;br&gt;&lt;/div&gt;" style="rounded=0;whiteSpace=wrap;html=1;" vertex="1" parent="1">
          <mxGeometry x="640" y="400" width="80" height="40" as="geometry" />
        </mxCell>
        <mxCell id="rjZ7sQsrVze4uHoTfamT-3" value="Gallo-Romance" style="rounded=0;whiteSpace=wrap;html=1;" vertex="1" parent="1">
          <mxGeometry x="640" y="360" width="80" height="40" as="geometry" />
        </mxCell>
        <mxCell id="rjZ7sQsrVze4uHoTfamT-5" value="Western Romance" style="rounded=0;whiteSpace=wrap;html=1;" vertex="1" parent="1">
          <mxGeometry x="400" y="320" width="320" height="40" as="geometry" />
        </mxCell>
        <mxCell id="rjZ7sQsrVze4uHoTfamT-6" value="Italo-Western" style="rounded=0;whiteSpace=wrap;html=1;" vertex="1" parent="1">
          <mxGeometry x="400" y="280" width="320" height="40" as="geometry" />
        </mxCell>
        <mxCell id="rjZ7sQsrVze4uHoTfamT-7" value="Romance" style="rounded=0;whiteSpace=wrap;html=1;" vertex="1" parent="1">
          <mxGeometry x="400" y="240" width="320" height="40" as="geometry" />
        </mxCell>
        <mxCell id="rjZ7sQsrVze4uHoTfamT-8" value="Latin" style="rounded=0;whiteSpace=wrap;html=1;" vertex="1" parent="1">
          <mxGeometry x="400" y="200" width="320" height="40" as="geometry" />
        </mxCell>
        <mxCell id="rjZ7sQsrVze4uHoTfamT-9" value="Latino-Faliscan" style="rounded=0;whiteSpace=wrap;html=1;" vertex="1" parent="1">
          <mxGeometry x="400" y="160" width="320" height="40" as="geometry" />
        </mxCell>
        <mxCell id="rjZ7sQsrVze4uHoTfamT-10" value="Italic" style="rounded=0;whiteSpace=wrap;html=1;" vertex="1" parent="1">
          <mxGeometry x="400" y="120" width="320" height="40" as="geometry" />
        </mxCell>
        <mxCell id="rjZ7sQsrVze4uHoTfamT-11" value="Indo-European" style="rounded=0;whiteSpace=wrap;html=1;" vertex="1" parent="1">
          <mxGeometry x="160" y="80" width="680" height="40" as="geometry" />
        </mxCell>
        <mxCell id="rjZ7sQsrVze4uHoTfamT-21" value="Arabic" style="rounded=0;whiteSpace=wrap;html=1;fontStyle=2" vertex="1" parent="1">
          <mxGeometry x="40" y="240" width="80" height="40" as="geometry" />
        </mxCell>
        <mxCell id="rjZ7sQsrVze4uHoTfamT-22" value="Central Semitic" style="rounded=0;whiteSpace=wrap;html=1;" vertex="1" parent="1">
          <mxGeometry x="40" y="200" width="80" height="40" as="geometry" />
        </mxCell>
        <mxCell id="rjZ7sQsrVze4uHoTfamT-23" value="West Semitic" style="rounded=0;whiteSpace=wrap;html=1;" vertex="1" parent="1">
          <mxGeometry x="40" y="160" width="80" height="40" as="geometry" />
        </mxCell>
        <mxCell id="rjZ7sQsrVze4uHoTfamT-24" value="Semitic" style="rounded=0;whiteSpace=wrap;html=1;" vertex="1" parent="1">
          <mxGeometry x="40" y="120" width="80" height="40" as="geometry" />
        </mxCell>
        <mxCell id="rjZ7sQsrVze4uHoTfamT-25" value="Afro-Asiatic" style="rounded=0;whiteSpace=wrap;html=1;" vertex="1" parent="1">
          <mxGeometry x="40" y="80" width="80" height="40" as="geometry" />
        </mxCell>
        <mxCell id="rjZ7sQsrVze4uHoTfamT-30" value="Germanic" style="rounded=0;whiteSpace=wrap;html=1;" vertex="1" parent="1">
          <mxGeometry x="160" y="120" width="200" height="40" as="geometry" />
        </mxCell>
        <mxCell id="rjZ7sQsrVze4uHoTfamT-31" value="West Germanic" style="rounded=0;whiteSpace=wrap;html=1;" vertex="1" parent="1">
          <mxGeometry x="160" y="160" width="200" height="40" as="geometry" />
        </mxCell>
        <mxCell id="rjZ7sQsrVze4uHoTfamT-32" value="German" style="rounded=0;whiteSpace=wrap;html=1;fontStyle=2" vertex="1" parent="1">
          <mxGeometry x="160" y="200" width="80" height="40" as="geometry" />
        </mxCell>
        <mxCell id="rjZ7sQsrVze4uHoTfamT-36" value="English" style="rounded=0;whiteSpace=wrap;html=1;fontStyle=2" vertex="1" parent="1">
          <mxGeometry x="280" y="320" width="80" height="40" as="geometry" />
        </mxCell>
        <mxCell id="rjZ7sQsrVze4uHoTfamT-37" value="Anglic" style="rounded=0;whiteSpace=wrap;html=1;" vertex="1" parent="1">
          <mxGeometry x="280" y="280" width="80" height="40" as="geometry" />
        </mxCell>
        <mxCell id="rjZ7sQsrVze4uHoTfamT-38" value="Anglo-Frisian" style="rounded=0;whiteSpace=wrap;html=1;" vertex="1" parent="1">
          <mxGeometry x="280" y="240" width="80" height="40" as="geometry" />
        </mxCell>
        <mxCell id="rjZ7sQsrVze4uHoTfamT-39" value="North Sea Germanic" style="rounded=0;whiteSpace=wrap;html=1;" vertex="1" parent="1">
          <mxGeometry x="280" y="200" width="80" height="40" as="geometry" />
        </mxCell>
        <mxCell id="rjZ7sQsrVze4uHoTfamT-46" value="Gallo-Iberian" style="rounded=0;whiteSpace=wrap;html=1;" vertex="1" parent="1">
          <mxGeometry x="400" y="360" width="80" height="40" as="geometry" />
        </mxCell>
        <mxCell id="rjZ7sQsrVze4uHoTfamT-47" value="Ibero-Romance" style="rounded=0;whiteSpace=wrap;html=1;" vertex="1" parent="1">
          <mxGeometry x="400" y="400" width="80" height="40" as="geometry" />
        </mxCell>
        <mxCell id="rjZ7sQsrVze4uHoTfamT-48" value="West Iberian" style="rounded=0;whiteSpace=wrap;html=1;" vertex="1" parent="1">
          <mxGeometry x="400" y="440" width="80" height="40" as="geometry" />
        </mxCell>
        <mxCell id="rjZ7sQsrVze4uHoTfamT-49" value="Castilian" style="rounded=0;whiteSpace=wrap;html=1;" vertex="1" parent="1">
          <mxGeometry x="400" y="480" width="80" height="40" as="geometry" />
        </mxCell>
        <mxCell id="rjZ7sQsrVze4uHoTfamT-50" value="Spanish" style="rounded=0;whiteSpace=wrap;html=1;fontStyle=2" vertex="1" parent="1">
          <mxGeometry x="400" y="520" width="80" height="40" as="geometry" />
        </mxCell>
        <mxCell id="rjZ7sQsrVze4uHoTfamT-53" value="Japanese" style="rounded=0;whiteSpace=wrap;html=1;fontStyle=2" vertex="1" parent="1">
          <mxGeometry x="880" y="120" width="80" height="40" as="geometry" />
        </mxCell>
        <mxCell id="rjZ7sQsrVze4uHoTfamT-54" value="Japonic" style="rounded=0;whiteSpace=wrap;html=1;" vertex="1" parent="1">
          <mxGeometry x="880" y="80" width="80" height="40" as="geometry" />
        </mxCell>
        <mxCell id="rjZ7sQsrVze4uHoTfamT-55" value="Koreanic" style="rounded=0;whiteSpace=wrap;html=1;" vertex="1" parent="1">
          <mxGeometry x="1000" y="80" width="80" height="40" as="geometry" />
        </mxCell>
        <mxCell id="rjZ7sQsrVze4uHoTfamT-56" value="Korean" style="rounded=0;whiteSpace=wrap;html=1;fontStyle=2" vertex="1" parent="1">
          <mxGeometry x="1000" y="120" width="80" height="40" as="geometry" />
        </mxCell>
        <mxCell id="rjZ7sQsrVze4uHoTfamT-57" value="Galician-Portugese" style="rounded=0;whiteSpace=wrap;html=1;" vertex="1" parent="1">
          <mxGeometry x="520" y="360" width="80" height="40" as="geometry" />
        </mxCell>
        <mxCell id="rjZ7sQsrVze4uHoTfamT-58" value="Portugese" style="rounded=0;whiteSpace=wrap;html=1;fontStyle=2" vertex="1" parent="1">
          <mxGeometry x="520" y="400" width="80" height="40" as="geometry" />
        </mxCell>
        <mxCell id="rjZ7sQsrVze4uHoTfamT-59" value="Balto-Slavic" style="rounded=0;whiteSpace=wrap;html=1;" vertex="1" parent="1">
          <mxGeometry x="760" y="120" width="80" height="40" as="geometry" />
        </mxCell>
        <mxCell id="rjZ7sQsrVze4uHoTfamT-60" value="Slavic" style="rounded=0;whiteSpace=wrap;html=1;" vertex="1" parent="1">
          <mxGeometry x="760" y="160" width="80" height="40" as="geometry" />
        </mxCell>
        <mxCell id="rjZ7sQsrVze4uHoTfamT-61" value="East Slavic" style="rounded=0;whiteSpace=wrap;html=1;" vertex="1" parent="1">
          <mxGeometry x="760" y="200" width="80" height="40" as="geometry" />
        </mxCell>
        <mxCell id="rjZ7sQsrVze4uHoTfamT-62" value="Russian" style="rounded=0;whiteSpace=wrap;html=1;fontStyle=2" vertex="1" parent="1">
          <mxGeometry x="760" y="240" width="80" height="40" as="geometry" />
        </mxCell>
        <mxCell id="rjZ7sQsrVze4uHoTfamT-63" value="Sino-Tibetan" style="rounded=0;whiteSpace=wrap;html=1;" vertex="1" parent="1">
          <mxGeometry x="1120" y="80" width="80" height="40" as="geometry" />
        </mxCell>
        <mxCell id="rjZ7sQsrVze4uHoTfamT-64" value="Sinitic" style="rounded=0;whiteSpace=wrap;html=1;" vertex="1" parent="1">
          <mxGeometry x="1120" y="120" width="80" height="40" as="geometry" />
        </mxCell>
        <mxCell id="rjZ7sQsrVze4uHoTfamT-65" value="Chinese" style="rounded=0;whiteSpace=wrap;html=1;fontStyle=2" vertex="1" parent="1">
          <mxGeometry x="1120" y="160" width="80" height="40" as="geometry" />
        </mxCell>
        <mxCell id="rjZ7sQsrVze4uHoTfamT-66" value="Languages" style="rounded=0;whiteSpace=wrap;html=1;fontStyle=1" vertex="1" parent="1">
          <mxGeometry x="40" y="40" width="1160" height="40" as="geometry" />
        </mxCell>
      </root>
    </mxGraphModel>
  </diagram>
</mxfile>
